<svg height="1262" width="720" xmlns="http://www.w3.org/2000/svg">
<rect height="1262" fill="#555" width="720"></rect>
<text fill="#7f7" font-family="Courier New" font-size="12" xml:space="preserve">
<tspan x="10" y="26">36 megabytes installed</tspan>
<tspan x="10" y="42"></tspan>
<tspan x="10" y="58">node_modules</tspan>
<tspan x="10" y="74">└─┬ react-templates@0.6.1 </tspan>
<tspan x="10" y="90">  ├─┬ chalk@1.1.3 </tspan>
<tspan x="10" y="106">  │ ├── ansi-styles@2.2.1 </tspan>
<tspan x="10" y="122">  │ ├── escape-string-regexp@1.0.5 </tspan>
<tspan x="10" y="138">  │ ├─┬ has-ansi@2.0.0 </tspan>
<tspan x="10" y="154">  │ │ └── ansi-regex@2.1.1 </tspan>
<tspan x="10" y="170">  │ ├── strip-ansi@3.0.1 </tspan>
<tspan x="10" y="186">  │ └── supports-color@2.0.0 </tspan>
<tspan x="10" y="202">  ├─┬ cheerio@0.22.0 </tspan>
<tspan x="10" y="218">  │ ├─┬ css-select@1.2.0 </tspan>
<tspan x="10" y="234">  │ │ ├── boolbase@1.0.0 </tspan>
<tspan x="10" y="250">  │ │ ├── css-what@2.1.0 </tspan>
<tspan x="10" y="266">  │ │ ├── domutils@1.5.1 </tspan>
<tspan x="10" y="282">  │ │ └── nth-check@1.0.1 </tspan>
<tspan x="10" y="298">  │ ├─┬ dom-serializer@0.1.0 </tspan>
<tspan x="10" y="314">  │ │ └── domelementtype@1.1.3 </tspan>
<tspan x="10" y="330">  │ ├── entities@1.1.1 </tspan>
<tspan x="10" y="346">  │ ├─┬ htmlparser2@3.9.2 </tspan>
<tspan x="10" y="362">  │ │ ├── domelementtype@1.3.0 </tspan>
<tspan x="10" y="378">  │ │ ├── domhandler@2.3.0 </tspan>
<tspan x="10" y="394">  │ │ └─┬ readable-stream@2.2.9 </tspan>
<tspan x="10" y="410">  │ │   ├── buffer-shims@1.0.0 </tspan>
<tspan x="10" y="426">  │ │   ├── core-util-is@1.0.2 </tspan>
<tspan x="10" y="442">  │ │   ├── isarray@1.0.0 </tspan>
<tspan x="10" y="458">  │ │   ├── process-nextick-args@1.0.7 </tspan>
<tspan x="10" y="474">  │ │   ├── string_decoder@1.0.0 </tspan>
<tspan x="10" y="490">  │ │   └── util-deprecate@1.0.2 </tspan>
<tspan x="10" y="506">  │ ├── lodash.assignin@4.2.0 </tspan>
<tspan x="10" y="522">  │ ├── lodash.bind@4.2.1 </tspan>
<tspan x="10" y="538">  │ ├── lodash.defaults@4.2.0 </tspan>
<tspan x="10" y="554">  │ ├── lodash.filter@4.6.0 </tspan>
<tspan x="10" y="570">  │ ├── lodash.flatten@4.4.0 </tspan>
<tspan x="10" y="586">  │ ├── lodash.foreach@4.5.0 </tspan>
<tspan x="10" y="602">  │ ├── lodash.map@4.6.0 </tspan>
<tspan x="10" y="618">  │ ├── lodash.merge@4.6.0 </tspan>
<tspan x="10" y="634">  │ ├── lodash.pick@4.4.0 </tspan>
<tspan x="10" y="650">  │ ├── lodash.reduce@4.6.0 </tspan>
<tspan x="10" y="666">  │ ├── lodash.reject@4.6.0 </tspan>
<tspan x="10" y="682">  │ └── lodash.some@4.6.0 </tspan>
<tspan x="10" y="698">  ├─┬ css@2.2.1 </tspan>
<tspan x="10" y="714">  │ ├── inherits@2.0.3 </tspan>
<tspan x="10" y="730">  │ ├─┬ source-map@0.1.43 </tspan>
<tspan x="10" y="746">  │ │ └── amdefine@1.0.1 </tspan>
<tspan x="10" y="762">  │ ├─┬ source-map-resolve@0.3.1 </tspan>
<tspan x="10" y="778">  │ │ ├── atob@1.1.3 </tspan>
<tspan x="10" y="794">  │ │ ├── resolve-url@0.2.1 </tspan>
<tspan x="10" y="810">  │ │ └── source-map-url@0.3.0 </tspan>
<tspan x="10" y="826">  │ └── urix@0.1.0 </tspan>
<tspan x="10" y="842">  ├─┬ escodegen@1.8.1 </tspan>
<tspan x="10" y="858">  │ ├── esprima@2.7.3 </tspan>
<tspan x="10" y="874">  │ ├── estraverse@1.9.3 </tspan>
<tspan x="10" y="890">  │ ├── esutils@2.0.2 </tspan>
<tspan x="10" y="906">  │ └── source-map@0.2.0 </tspan>
<tspan x="10" y="922">  ├── esprima@3.1.3 </tspan>
<tspan x="10" y="938">  ├─┬ glob@7.1.1 </tspan>
<tspan x="10" y="954">  │ ├── fs.realpath@1.0.0 </tspan>
<tspan x="10" y="970">  │ ├─┬ inflight@1.0.6 </tspan>
<tspan x="10" y="986">  │ │ └── wrappy@1.0.2 </tspan>
<tspan x="10" y="1002">  │ ├─┬ minimatch@3.0.3 </tspan>
<tspan x="10" y="1018">  │ │ └─┬ brace-expansion@1.1.7 </tspan>
<tspan x="10" y="1034">  │ │   ├── balanced-match@0.4.2 </tspan>
<tspan x="10" y="1050">  │ │   └── concat-map@0.0.1 </tspan>
<tspan x="10" y="1066">  │ ├── once@1.4.0 </tspan>
<tspan x="10" y="1082">  │ └── path-is-absolute@1.0.1 </tspan>
<tspan x="10" y="1098">  ├── lodash@4.17.4 </tspan>
<tspan x="10" y="1114">  ├── normalize-html-whitespace@0.2.0 </tspan>
<tspan x="10" y="1130">  ├─┬ optionator@0.8.2 </tspan>
<tspan x="10" y="1146">  │ ├── deep-is@0.1.3 </tspan>
<tspan x="10" y="1162">  │ ├── fast-levenshtein@2.0.6 </tspan>
<tspan x="10" y="1178">  │ ├── levn@0.3.0 </tspan>
<tspan x="10" y="1194">  │ ├── prelude-ls@1.1.2 </tspan>
<tspan x="10" y="1210">  │ ├── type-check@0.3.2 </tspan>
<tspan x="10" y="1226">  │ └── wordwrap@1.0.0 </tspan>
<tspan x="10" y="1242">  └── text-table@0.2.0</tspan>
</text>
</svg>
